<svg width="24" height="24" viewBox="0 0 24 24" fill="none" xmlns="http://www.w3.org/2000/svg">
<path d="M12.4325 17.772C9.72715 17.772 7.52618 15.5711 7.52618 12.8657C7.52618 10.1604 9.72711 7.95945 12.4325 7.95945C15.1378 7.95945 17.3387 10.1604 17.3387 12.8657C17.3387 15.5711 15.1378 17.772 12.4325 17.772ZM12.4325 9.31887C10.4767 9.31887 8.88556 10.91 8.88556 12.8658C8.88556 14.8215 10.4767 16.4127 12.4325 16.4127C14.3882 16.4127 15.9793 14.8215 15.9793 12.8658C15.9793 10.91 14.3882 9.31887 12.4325 9.31887Z" fill="#262626"/>
<path d="M19.6826 21.8254H4.31545C1.93589 21.8254 0 20.0452 0 17.857V8.92409C0 6.73602 1.93589 4.95584 4.31545 4.95584H5.52047L7.51256 2.34073C7.67761 2.12413 7.95047 2 8.26125 2H15.7837C16.0947 2 16.3676 2.12427 16.5325 2.34097L18.5245 4.95584H19.6826C22.0622 4.95584 23.9981 6.73602 23.9981 8.92409V17.857C23.9981 20.0452 22.0622 21.8254 19.6826 21.8254ZM4.31545 6.31522C2.68547 6.31522 1.35938 7.48555 1.35938 8.92409V17.857C1.35938 19.2956 2.68547 20.466 4.31545 20.466H19.6826C21.3126 20.466 22.6387 19.2956 22.6387 17.857V8.92409C22.6387 7.48559 21.3126 6.31522 19.6826 6.31522H18.2968C18.0179 6.31522 17.7518 6.18463 17.5851 5.96595L15.5995 3.35938H8.44547L6.46008 5.96577C6.2933 6.18463 6.02723 6.31527 5.74819 6.31527H4.31545V6.31522Z" fill="#262626"/>
</svg>
