<svg width="24" height="24" viewBox="0 0 24 24" fill="none" xmlns="http://www.w3.org/2000/svg">
<path d="M11.9999 16C11.8683 16.0008 11.7379 15.9755 11.616 15.9258C11.4942 15.876 11.3834 15.8027 11.2899 15.71L5.28994 9.71C5.10164 9.5217 4.99585 9.2663 4.99585 9C4.99585 8.7337 5.10164 8.47831 5.28994 8.29C5.47825 8.1017 5.73364 7.99591 5.99994 7.99591C6.26624 7.99591 6.52164 8.1017 6.70994 8.29L11.9999 13.59L17.2899 8.3C17.4812 8.13618 17.7273 8.05057 17.979 8.06029C18.2307 8.07001 18.4694 8.17434 18.6475 8.35244C18.8256 8.53053 18.9299 8.76927 18.9397 9.02095C18.9494 9.27262 18.8638 9.5187 18.6999 9.71L12.6999 15.71C12.5137 15.8947 12.2623 15.9989 11.9999 16Z" fill="#B2AFAE"/>
</svg>
