<svg width="24" height="24" viewBox="0 0 24 24" fill="none" xmlns="http://www.w3.org/2000/svg">
<g clip-path="url(#clip0_16_84)">
<path d="M20.9165 1.9042C19.7068 0.696687 17.7479 0.696687 16.5383 1.9042L15.4423 3.00615L3.77609 14.6662L3.7513 14.6912C3.7453 14.6972 3.7453 14.7036 3.7389 14.7036C3.72651 14.7222 3.70791 14.7406 3.69571 14.7592C3.69571 14.7654 3.68932 14.7654 3.68932 14.7716C3.67692 14.7902 3.67092 14.8026 3.65833 14.8212C3.65232 14.8274 3.65232 14.8334 3.64612 14.8398C3.63993 14.8584 3.63373 14.8708 3.62733 14.8893C3.62733 14.8954 3.62133 14.8954 3.62133 14.9017L1.03294 22.6853C0.95701 22.9069 1.01473 23.1523 1.18151 23.3168C1.29869 23.4324 1.45675 23.4971 1.6212 23.4965C1.68841 23.4954 1.75505 23.4849 1.81935 23.4655L9.59692 20.8709C9.60293 20.8709 9.60293 20.8709 9.60932 20.8649C9.62888 20.8591 9.64767 20.8508 9.66491 20.84C9.66975 20.8394 9.67401 20.8372 9.6775 20.8339C9.6959 20.8215 9.7207 20.809 9.73929 20.7966C9.75769 20.7844 9.77648 20.7658 9.79508 20.7534C9.80127 20.747 9.80728 20.747 9.80728 20.741C9.81367 20.7348 9.82607 20.7288 9.83226 20.7162L22.5945 7.95398C23.802 6.74433 23.802 4.78546 22.5945 3.57601L20.9165 1.9042ZM9.39877 19.4157L5.08898 15.1061L15.8758 4.31923L20.1856 8.62882L9.39877 19.4157ZM4.48193 16.2516L8.24704 20.0165L2.59337 21.8989L4.48193 16.2516ZM21.7215 7.08699L21.065 7.74963L16.755 3.43965L17.4179 2.7772C18.1429 2.05277 19.3181 2.05277 20.0433 2.7772L21.7275 4.46141C22.4471 5.18971 22.4443 6.36217 21.7215 7.08699Z" fill="#7571A4" stroke="#7571A4" stroke-width="0.5"/>
</g>
<defs>
<clipPath id="clip0_16_84">
<rect width="24" height="24" fill="white"/>
</clipPath>
</defs>
</svg>
