<svg width="24" height="24" viewBox="0 0 24 24" fill="none" xmlns="http://www.w3.org/2000/svg">
<g clip-path="url(#clip0_201_628)">
<path d="M12.154 8.90694C10.8019 8.90694 9.70581 10.003 9.70581 11.3551C9.70581 12.7071 10.8019 13.8032 12.154 13.8032C13.506 13.8032 14.6021 12.7072 14.6021 11.3551C14.6021 10.003 13.506 8.90694 12.154 8.90694ZM12.154 12.6374C11.4457 12.6374 10.8716 12.0633 10.8716 11.355C10.8716 10.6468 11.4457 10.0727 12.154 10.0727C12.8622 10.0727 13.4363 10.6468 13.4363 11.355C13.4363 12.0633 12.8622 12.6374 12.154 12.6374Z" fill="black"/>
<path d="M21.9174 3.31118L6.00455 1.50428C5.38697 1.41647 4.76124 1.59677 4.28506 1.99975C3.80895 2.36893 3.50375 2.91617 3.43988 3.51524L3.14846 5.90509H2.24493C0.962561 5.90509 0.000787611 7.04169 0.000787611 8.32405V20.2441C-0.0315114 21.4669 0.93361 22.4845 2.15651 22.5168C2.18596 22.5175 2.21547 22.5177 2.24493 22.5173H18.2451C19.5275 22.5173 20.6933 21.5264 20.6933 20.2441V19.7778C21.0909 19.7009 21.468 19.5421 21.8008 19.3115C22.273 18.9139 22.5753 18.3509 22.646 17.7377L23.9866 5.90509C24.1233 4.61976 23.2009 3.46353 21.9174 3.31118ZM19.5275 20.2441C19.5275 20.8852 18.8863 21.3515 18.2451 21.3515H2.24493C1.66572 21.3686 1.18241 20.9128 1.16539 20.3336C1.1645 20.3037 1.16489 20.2739 1.16656 20.2441V18.0874L5.68396 14.7649C6.22663 14.3483 6.99098 14.3853 7.49092 14.8524L10.6677 17.6502C11.1501 18.0553 11.7573 18.2817 12.3872 18.2914C12.8797 18.2974 13.364 18.1663 13.7862 17.9125L19.5276 14.5901V20.2441H19.5275ZM19.5275 13.2203L13.174 16.9216C12.6285 17.2448 11.9379 17.1863 11.4545 16.7759L8.24864 13.9489C7.32982 13.1594 5.98687 13.1109 5.0136 13.8323L1.16656 16.6301V8.32405C1.16656 7.68287 1.60374 7.07086 2.24493 7.07086H18.2451C18.9302 7.09926 19.4834 7.63992 19.5275 8.32405V13.2203ZM22.822 5.74772C22.8216 5.75157 22.8212 5.75547 22.8208 5.75932L21.451 17.5919C21.4534 17.8987 21.3134 18.1893 21.0721 18.3788C20.9555 18.4954 20.6932 18.5537 20.6932 18.612V8.32405C20.6472 6.99633 19.5733 5.93515 18.2451 5.90509H4.31418L4.57648 3.63183C4.63338 3.33745 4.78729 3.07069 5.01366 2.87406C5.26926 2.69733 5.57831 2.61494 5.88802 2.64088L21.7717 4.47696C22.4126 4.53782 22.8828 5.10676 22.822 5.74772Z" fill="black"/>
</g>
<defs>
<clipPath id="clip0_201_628">
<rect width="24" height="24" fill="white"/>
</clipPath>
</defs>
</svg>
