<svg width="24" height="24" viewBox="0 0 24 24" fill="none" xmlns="http://www.w3.org/2000/svg">
<g clip-path="url(#clip0_73_19)">
<path d="M12 0C5.38373 0 0 5.3828 0 12C0 16.2181 2.19272 19.9278 5.49248 22.0675C5.59008 22.167 5.7128 22.2358 5.84662 22.2832C7.64897 23.3651 9.74873 24 12 24C18.6172 24 24 18.6172 24 12C24 5.3828 18.6172 0 12 0ZM12 22.1419C10.2386 22.141 8.58033 21.6883 7.13494 20.8945C7.39425 18.5605 9.33975 16.9088 11.9814 16.9088C14.6314 16.9088 16.5797 18.5707 16.8297 20.9159C15.3927 21.6976 13.7475 22.1419 12 22.1419ZM9.14639 11.6561C9.14639 10.0824 10.4263 8.80247 12 8.80247C13.5737 8.80247 14.8536 10.0824 14.8536 11.6561C14.8536 13.2297 13.5737 14.5097 12 14.5097C10.4263 14.5097 9.14639 13.2298 9.14639 11.6561ZM18.5177 19.7577C18 17.8113 16.5871 16.2757 14.6668 15.5349C15.9002 14.6844 16.7126 13.2641 16.7126 11.6561C16.7126 9.05714 14.5989 6.94345 12 6.94345C9.40106 6.94345 7.28738 9.05714 7.28738 11.6561C7.28738 13.2595 8.09513 14.6742 9.32208 15.5265C7.39706 16.26 5.97769 17.789 5.4525 19.7317C3.25795 17.8689 1.85902 15.0962 1.85902 12C1.85902 6.40898 6.40805 1.85902 12 1.85902C17.592 1.85902 22.141 6.40898 22.141 12C22.141 15.1111 20.73 17.8959 18.5177 19.7577Z" fill="#7571A4"/>
</g>
<defs>
<clipPath id="clip0_73_19">
<rect width="24" height="24" fill="white"/>
</clipPath>
</defs>
</svg>
