<svg width="24" height="24" viewBox="0 0 24 24" fill="none" xmlns="http://www.w3.org/2000/svg">
<g clip-path="url(#clip0_24_58)">
<path d="M21.8335 9.46154C22.0431 10.2729 22.1538 11.1231 22.1538 12C22.1538 17.604 17.604 22.1538 12 22.1538C6.396 22.1538 1.84615 17.604 1.84615 12C1.84615 6.396 6.396 1.84615 12 1.84615C12.8769 1.84615 13.7271 1.95692 14.5385 2.16646C15.0323 2.29385 15.5363 1.99662 15.6628 1.50277C15.7902 1.00985 15.4929 0.505846 15 0.378462C14.0409 0.132 13.0357 0 12 0C5.37692 0 0 5.37692 0 12C0 18.6231 5.37692 24 12 24C18.6231 24 24 18.6231 24 12C24 10.9643 23.868 9.95908 23.6215 9C23.4942 8.50708 22.9902 8.20985 22.4972 8.33723C22.0034 8.46369 21.7062 8.96769 21.8335 9.46154ZM11.0769 6.19015C10.6108 6.28338 10.1695 6.492 9.79662 6.80308C9.79662 6.80308 9.79662 6.80308 9.79569 6.804C9.132 7.35692 8.74615 8.17477 8.74154 9.03877C8.73692 9.90277 9.11446 10.7252 9.77262 11.2855L12.9572 13.9957C13.2009 14.2034 13.3412 14.5089 13.3394 14.8292C13.3375 15.1505 13.1945 15.4542 12.948 15.6591L12.9462 15.6609C12.7283 15.8428 12.4449 15.9277 12.1634 15.8963C12.1551 15.8954 12.1477 15.8945 12.1403 15.8935C12.1338 15.8926 12.1283 15.8917 12.1218 15.8908C11.856 15.8511 11.6151 15.7089 11.4508 15.4948C10.9625 14.8588 10.5166 14.2782 10.5166 14.2782C10.2065 13.8738 9.62677 13.7982 9.22246 14.1083C8.81815 14.4185 8.74246 14.9982 9.05262 15.4025C9.05262 15.4025 9.49846 15.9831 9.98677 16.6191C10.2766 16.9966 10.6523 17.2929 11.0769 17.4877V18.8169L11.0852 18.9378C11.1009 19.0754 11.1452 19.1908 11.2052 19.2849C11.3575 19.5443 11.6345 19.7225 11.9529 19.7382L12 19.74L12.0397 19.7345C12.216 19.7068 12.9231 19.5489 12.9231 18.8086V17.676C13.3615 17.5754 13.7751 17.3732 14.1277 17.0797C14.1286 17.0788 14.1295 17.0778 14.1305 17.0778C14.7951 16.524 15.1809 15.7043 15.1855 14.8394C15.1902 13.9745 14.8126 13.1511 14.1535 12.5898L10.9689 9.87969C10.7262 9.672 10.5858 9.36831 10.5877 9.04892C10.5895 8.72862 10.7326 8.42677 10.9782 8.22185L10.9791 8.22092C11.1969 8.03908 11.4794 7.95508 11.7618 7.98646C11.7812 7.98923 11.8015 7.992 11.8209 7.99569C11.8283 7.99661 11.8357 7.99846 11.8431 7.99938C12.0923 8.04831 12.3166 8.18677 12.4717 8.39077C12.9932 9.07662 13.4806 9.71815 13.4806 9.71815C13.7889 10.1243 14.3686 10.2028 14.7738 9.89446C15.1791 9.58615 15.2585 9.00738 14.9502 8.60123C14.9502 8.60123 14.4628 7.95969 13.9412 7.27385C13.6689 6.91477 13.3191 6.62862 12.9231 6.43292V5.18308C12.9231 4.67354 12.5095 4.26 12 4.26C11.4905 4.26 11.0769 4.67354 11.0769 5.18308V6.19015ZM18.4615 3.69231H15.6923C15.1828 3.69231 14.7692 4.10585 14.7692 4.61538C14.7692 5.12492 15.1828 5.53846 15.6923 5.53846H18.4615V8.30769C18.4615 8.81723 18.8751 9.23077 19.3846 9.23077C19.8942 9.23077 20.3077 8.81723 20.3077 8.30769V5.53846H23.0769C23.5865 5.53846 24 5.12492 24 4.61538C24 4.10585 23.5865 3.69231 23.0769 3.69231H20.3077V0.923077C20.3077 0.413538 19.8942 0 19.3846 0C18.8751 0 18.4615 0.413538 18.4615 0.923077V3.69231Z" fill="#7571A4"/>
</g>
<defs>
<clipPath id="clip0_24_58">
<rect width="24" height="24" fill="white"/>
</clipPath>
</defs>
</svg>
