<svg width="24" height="24" viewBox="0 0 24 24" fill="none" xmlns="http://www.w3.org/2000/svg">
<g clip-path="url(#clip0_24_61)">
<path d="M21.6011 0H2.40012C1.76379 0.000719952 1.15373 0.253821 0.703775 0.703775C0.253821 1.15373 0.000719952 1.76379 0 2.40012V15.2008C0.000719952 15.8371 0.253821 16.4472 0.703775 16.8971C1.15373 17.3471 1.76379 17.6002 2.40012 17.6009H11.2006V21.2699L9.36608 19.4354C9.21519 19.2897 9.0131 19.209 8.80333 19.2108C8.59356 19.2127 8.3929 19.2968 8.24457 19.4451C8.09623 19.5935 8.01209 19.7941 8.01027 20.0039C8.00845 20.2137 8.08909 20.4158 8.23482 20.5667L11.434 23.7659C11.5845 23.9158 11.7882 24 12.0006 24C12.213 24 12.4168 23.9158 12.5672 23.7659L15.7664 20.5667C15.9121 20.4158 15.9928 20.2137 15.991 20.0039C15.9891 19.7941 15.905 19.5935 15.7567 19.4451C15.6083 19.2968 15.4077 19.2127 15.1979 19.2108C14.9881 19.209 14.786 19.2897 14.6351 19.4354L12.8007 21.2699V17.6009H21.6011C22.2374 17.6002 22.8475 17.3471 23.2975 16.8971C23.7474 16.4472 24.0005 15.8371 24.0012 15.2008V2.40012C24.0005 1.76379 23.7474 1.15373 23.2975 0.703775C22.8475 0.253821 22.2374 0.000719952 21.6011 0ZM22.4011 15.2008C22.4007 15.4128 22.3163 15.6161 22.1664 15.766C22.0164 15.916 21.8132 16.0004 21.6011 16.0008H12.8007V15.2008C12.8007 14.9886 12.7164 14.7851 12.5663 14.6351C12.4163 14.485 12.2128 14.4007 12.0006 14.4007C11.7884 14.4007 11.5849 14.485 11.4349 14.6351C11.2849 14.7851 11.2006 14.9886 11.2006 15.2008V16.0008H2.40012C2.18807 16.0004 1.98482 15.916 1.83488 15.766C1.68493 15.6161 1.6005 15.4128 1.60008 15.2008V2.40012C1.60034 2.18802 1.68471 1.98467 1.83469 1.83469C1.98467 1.68471 2.18802 1.60034 2.40012 1.60008H21.6011C21.8132 1.60034 22.0166 1.68471 22.1665 1.83469C22.3165 1.98467 22.4009 2.18802 22.4011 2.40012V15.2008Z" fill="#7571A4"/>
<path d="M12.0006 4.80023C11.2094 4.80023 10.436 5.03484 9.77818 5.47439C9.12035 5.91394 8.60763 6.53868 8.30487 7.26962C8.0021 8.00057 7.92288 8.80487 8.07723 9.58084C8.23158 10.3568 8.61256 11.0696 9.172 11.629C9.73144 12.1884 10.4442 12.5694 11.2202 12.7238C11.9961 12.8781 12.8004 12.7989 13.5314 12.4961C14.2623 12.1934 14.8871 11.6807 15.3266 11.0228C15.7662 10.365 16.0008 9.5916 16.0008 8.80044C15.9997 7.73985 15.5779 6.72303 14.8279 5.97308C14.078 5.22314 13.0612 4.80133 12.0006 4.80023ZM12.0006 11.2006C11.5259 11.2006 11.0618 11.0598 10.6671 10.7961C10.2724 10.5323 9.96481 10.1575 9.78315 9.71892C9.60149 9.28036 9.55396 8.79777 9.64657 8.3322C9.73918 7.86662 9.96777 7.43896 10.3034 7.10329C10.6391 6.76763 11.0668 6.53904 11.5323 6.44643C11.9979 6.35382 12.4805 6.40135 12.9191 6.58301C13.3576 6.76467 13.7325 7.0723 13.9962 7.467C14.2599 7.8617 14.4007 8.32574 14.4007 8.80044C14.4 9.43677 14.1469 10.0468 13.6969 10.4968C13.247 10.9467 12.6369 11.1998 12.0006 11.2006Z" fill="#7571A4"/>
</g>
<defs>
<clipPath id="clip0_24_61">
<rect width="24" height="24" fill="white"/>
</clipPath>
</defs>
</svg>
